<svg width="1127" height="210" viewBox="0 0 1127 210" fill="none" xmlns="http://www.w3.org/2000/svg">
<path d="M312.662 165.653C313.066 178.921 308.51 190.048 298.95 199.012C291.856 205.665 283.332 209.377 273.515 209.952C270.835 210.109 270.749 210.026 270.749 207.368C270.747 185.667 270.76 163.967 270.756 142.267C270.754 123.418 270.737 104.57 270.72 85.722C270.72 84.9395 270.653 84.1571 270.595 82.8861C269.906 83.613 269.516 83.9611 269.201 84.3666C260.007 96.1989 250.81 108.029 241.638 119.878C237.63 125.056 232.446 125.074 228.429 119.913C219.341 108.236 210.231 96.5749 201.125 84.9114C200.762 84.4466 200.341 84.0258 199.581 83.1732C199.517 84.603 199.442 85.499 199.442 86.395C199.434 113.923 199.434 141.452 199.432 168.98C199.432 169.166 199.432 169.352 199.432 169.538C199.432 173.616 199.195 173.818 195.013 173.317C175.498 170.978 160.311 155.986 157.837 136.566C157.571 134.482 157.436 132.366 157.435 130.265C157.412 88.4764 157.418 46.6877 157.419 4.89899C157.419 1.09967 157.617 0.928109 161.494 1.30997C174.023 2.54393 183.85 8.73639 191.339 18.3621C197.054 25.7071 202.01 33.6391 207.208 41.3734C215.215 53.2884 223.129 65.265 231.107 77.1996C233.363 80.5739 236.625 80.54 238.896 77.1336C250.51 59.7069 262.119 42.2765 273.709 24.8331C279.819 15.6364 287.38 8.07661 297.802 3.76197C301.636 2.17446 305.65 1.26124 309.837 1.28231C312.42 1.2953 312.647 1.5133 312.657 4.0167C312.671 7.61271 312.662 11.2088 312.662 14.8049C312.662 65.0258 312.662 115.247 312.662 165.653Z" fill="#2460A8"/>
<path d="M93.696 126.481C77.6392 126.424 61.7699 126.364 45.9006 126.312C42.7117 126.302 42.665 126.352 42.663 129.546C42.6562 140.581 42.6984 151.616 42.6459 162.651C42.5753 177.465 42.4367 192.278 42.3202 207.091C42.3019 209.412 42.0527 209.724 39.7108 209.566C28.4297 208.807 19.0167 204.134 11.5665 195.774C4.29023 187.609 0.676525 178.026 0.686912 167.037C0.738182 112.791 0.71018 58.5448 0.71036 4.29846C0.710377 -0.223247 0.835934 -0.332428 5.34035 0.24765C25.1712 2.80146 40.5012 18.4837 42.2808 38.2705C42.7127 43.073 42.6124 47.9282 42.6389 52.7598C42.6902 62.1208 42.6499 71.4824 42.6655 80.8437C42.6694 83.2221 42.8874 83.4133 45.2256 83.4127C64.5326 83.4077 83.8396 83.4019 103.147 83.3942C106.719 83.3927 106.724 83.3883 106.725 79.736C106.728 54.7517 106.728 29.7674 106.729 4.78308C106.729 4.22512 106.724 3.66706 106.733 3.10922C106.771 0.686055 107.019 0.378087 109.441 0.498029C132.769 1.6535 147.156 15.8788 148.289 37.7961C149.14 54.2463 148.72 70.7644 148.751 87.2525C148.801 114.283 148.757 141.313 148.752 168.343C148.752 168.777 148.758 169.211 148.746 169.645C148.687 171.671 148.317 172.035 146.264 171.899C141.357 171.572 136.556 170.603 132.135 168.482C116.054 160.766 107.598 147.961 106.751 130.263C106.57 126.492 106.691 126.485 102.88 126.483C99.8814 126.481 96.8824 126.482 93.696 126.481Z" fill="#2460A8"/>
<path d="M83.3974 193.553H83.8999L84.0615 197.649H83.3974C83.1342 196.604 82.6257 195.785 81.8719 195.192C81.118 194.598 80.2087 194.301 79.1438 194.301C78.4139 194.301 77.7618 194.444 77.1875 194.729C76.6132 195.014 76.1286 195.423 75.7337 195.957C75.3389 196.492 75.0338 197.145 74.8184 197.916C74.615 198.688 74.5133 199.561 74.5133 200.534C74.5133 202.446 74.9141 203.918 75.7158 204.951C76.5174 205.972 77.6781 206.482 79.1976 206.482C81.5069 206.482 82.9906 205.265 83.6487 202.831H84.3845V207.266H83.7564L83.3436 205.859C82.0872 206.915 80.5677 207.444 78.7848 207.444C77.7678 207.444 76.8465 207.283 76.0209 206.963C75.2072 206.642 74.5073 206.191 73.921 205.609C73.3467 205.016 72.898 204.298 72.5749 203.455C72.2638 202.612 72.1083 201.674 72.1083 200.641C72.1083 199.561 72.2758 198.575 72.6108 197.685C72.9458 196.794 73.4125 196.029 74.0107 195.388C74.621 194.747 75.3448 194.254 76.1824 193.91C77.0319 193.553 77.9652 193.375 78.9823 193.375C79.7002 193.375 80.3762 193.476 81.0104 193.678C81.6445 193.88 82.3325 194.206 83.0744 194.657L83.3974 193.553Z" fill="#2460A8"/>
<path d="M104.859 193.375C105.912 193.375 106.893 193.559 107.802 193.927C108.711 194.295 109.501 194.8 110.171 195.441C110.841 196.082 111.368 196.836 111.751 197.703C112.133 198.569 112.325 199.507 112.325 200.516C112.325 201.478 112.127 202.38 111.733 203.223C111.35 204.066 110.823 204.802 110.153 205.431C109.483 206.049 108.693 206.541 107.784 206.909C106.875 207.266 105.9 207.444 104.859 207.444C103.818 207.444 102.842 207.266 101.933 206.909C101.024 206.541 100.234 206.049 99.564 205.431C98.8939 204.802 98.3615 204.066 97.9666 203.223C97.5838 202.38 97.3923 201.478 97.3923 200.516C97.3923 199.507 97.5838 198.569 97.9666 197.703C98.3495 196.836 98.876 196.082 99.5461 195.441C100.216 194.8 101.006 194.295 101.915 193.927C102.825 193.559 103.806 193.375 104.859 193.375ZM104.859 206.464C105.648 206.464 106.354 206.328 106.976 206.055C107.611 205.782 108.149 205.39 108.592 204.879C109.046 204.369 109.393 203.751 109.633 203.027C109.872 202.291 109.992 201.472 109.992 200.57C109.992 199.62 109.872 198.765 109.633 198.005C109.393 197.234 109.052 196.581 108.61 196.047C108.167 195.5 107.629 195.085 106.994 194.8C106.36 194.503 105.648 194.355 104.859 194.355C104.069 194.355 103.357 194.503 102.723 194.8C102.089 195.085 101.55 195.5 101.108 196.047C100.665 196.581 100.324 197.234 100.084 198.005C99.8452 198.765 99.7255 199.62 99.7255 200.57C99.7255 201.472 99.8452 202.291 100.084 203.027C100.324 203.751 100.665 204.369 101.108 204.879C101.55 205.39 102.089 205.782 102.723 206.055C103.357 206.328 104.069 206.464 104.859 206.464Z" fill="#2460A8"/>
<path d="M133.945 204.078L138.611 193.553H142.631V194.23C142.248 194.242 141.937 194.289 141.698 194.373C141.471 194.456 141.291 194.598 141.16 194.8C141.04 194.99 140.956 195.257 140.908 195.601C140.872 195.946 140.854 196.385 140.854 196.919V203.9C140.854 204.493 140.878 204.962 140.926 205.307C140.974 205.651 141.064 205.918 141.196 206.108C141.339 206.298 141.537 206.423 141.788 206.482C142.051 206.541 142.392 206.577 142.811 206.589V207.266H136.996V206.589C137.415 206.577 137.75 206.541 138.001 206.482C138.264 206.411 138.467 206.286 138.611 206.108C138.755 205.93 138.85 205.681 138.898 205.36C138.946 205.028 138.97 204.582 138.97 204.024V195.762H138.791L133.55 207.444H133.155L128.004 195.762H127.932V203.9C127.932 204.493 127.956 204.962 128.004 205.307C128.052 205.651 128.142 205.918 128.273 206.108C128.417 206.298 128.614 206.423 128.865 206.482C129.129 206.541 129.47 206.577 129.888 206.589V207.266H124.881V206.589C125.3 206.577 125.635 206.541 125.886 206.482C126.149 206.411 126.353 206.286 126.496 206.108C126.64 205.93 126.736 205.681 126.783 205.36C126.831 205.028 126.855 204.582 126.855 204.024V196.794C126.855 196.296 126.831 195.886 126.783 195.566C126.748 195.233 126.664 194.972 126.532 194.782C126.413 194.592 126.233 194.462 125.994 194.39C125.754 194.307 125.443 194.254 125.06 194.23V193.553H129.35L133.873 204.078H133.945Z" fill="#2460A8"/>
<path d="M166.391 196.99C166.391 197.62 166.29 198.183 166.086 198.682C165.883 199.181 165.56 199.602 165.117 199.946C164.686 200.291 164.118 200.558 163.412 200.748C162.718 200.938 161.869 201.033 160.863 201.033H159.248V204.47C159.248 204.909 159.272 205.271 159.32 205.556C159.38 205.829 159.493 206.043 159.661 206.197C159.84 206.351 160.092 206.458 160.415 206.518C160.75 206.565 161.187 206.589 161.725 206.589V207.266H155.389V206.589C155.808 206.577 156.143 206.541 156.394 206.482C156.658 206.423 156.861 206.322 157.005 206.179C157.148 206.037 157.244 205.835 157.292 205.574C157.34 205.313 157.364 204.974 157.364 204.559V196.26C157.364 195.845 157.34 195.512 157.292 195.263C157.256 195.002 157.172 194.8 157.041 194.657C156.921 194.503 156.741 194.402 156.502 194.355C156.263 194.295 155.952 194.254 155.569 194.23V193.553H161.204C162.856 193.553 164.13 193.856 165.027 194.462C165.937 195.067 166.391 195.91 166.391 196.99ZM159.248 200.142H160.522C161.719 200.142 162.604 199.917 163.179 199.466C163.765 199.003 164.058 198.249 164.058 197.204C164.058 196.195 163.825 195.477 163.358 195.049C162.904 194.61 162.186 194.39 161.204 194.39H159.553C159.35 194.39 159.248 194.491 159.248 194.693V200.142Z" fill="#2460A8"/>
<path d="M185.576 202.297H180.784C180.58 202.784 180.407 203.217 180.263 203.597C180.12 203.965 180 204.286 179.904 204.559C179.821 204.832 179.761 205.063 179.725 205.253C179.689 205.443 179.671 205.598 179.671 205.716C179.671 206.049 179.779 206.28 179.994 206.411C180.209 206.529 180.568 206.589 181.071 206.589V207.266H176.71V206.589C176.985 206.553 177.218 206.506 177.41 206.446C177.613 206.387 177.787 206.304 177.93 206.197C178.086 206.09 178.217 205.954 178.325 205.787C178.445 205.609 178.558 205.396 178.666 205.146L183.332 193.553H184.104L188.178 203.597C188.453 204.262 188.693 204.796 188.896 205.2C189.1 205.592 189.297 205.888 189.488 206.09C189.68 206.292 189.883 206.423 190.099 206.482C190.326 206.541 190.595 206.571 190.906 206.571V207.266H185.055V206.571C185.69 206.571 186.126 206.512 186.366 206.393C186.605 206.274 186.724 206.078 186.724 205.805C186.724 205.687 186.719 205.58 186.707 205.485C186.695 205.378 186.671 205.265 186.635 205.146C186.611 205.028 186.569 204.897 186.509 204.755C186.461 204.6 186.395 204.422 186.312 204.22L185.576 202.297ZM181.143 201.407H185.235L183.243 196.153L181.143 201.407Z" fill="#2460A8"/>
<path d="M214.085 207.444L205.56 196.296H205.488V203.9C205.488 204.493 205.506 204.962 205.542 205.307C205.59 205.651 205.674 205.918 205.793 206.108C205.925 206.298 206.104 206.423 206.332 206.482C206.571 206.541 206.882 206.577 207.265 206.589V207.266H202.437V206.589C202.856 206.577 203.191 206.541 203.442 206.482C203.705 206.411 203.909 206.286 204.052 206.108C204.196 205.93 204.292 205.681 204.34 205.36C204.387 205.028 204.411 204.582 204.411 204.024V196.794C204.411 196.296 204.387 195.886 204.34 195.566C204.304 195.233 204.22 194.972 204.088 194.782C203.969 194.592 203.789 194.462 203.55 194.39C203.311 194.307 202.999 194.254 202.617 194.23V193.553H206.17L214.013 203.935H214.085V196.919C214.085 196.337 214.061 195.874 214.013 195.53C213.977 195.174 213.894 194.901 213.762 194.711C213.642 194.521 213.463 194.396 213.224 194.337C212.996 194.278 212.691 194.242 212.308 194.23V193.553H217.136V194.23C216.718 194.242 216.376 194.284 216.113 194.355C215.862 194.414 215.665 194.533 215.521 194.711C215.377 194.889 215.282 195.144 215.234 195.477C215.186 195.809 215.162 196.248 215.162 196.794V207.444H214.085Z" fill="#2460A8"/>
<path d="M230.819 195.762C230.639 195.453 230.472 195.204 230.316 195.014C230.161 194.812 229.999 194.652 229.832 194.533C229.676 194.414 229.508 194.337 229.329 194.301C229.15 194.254 228.934 194.23 228.683 194.23V193.553H234.336V194.23C233.738 194.23 233.313 194.278 233.062 194.373C232.823 194.456 232.703 194.61 232.703 194.836C232.703 195.085 232.841 195.441 233.116 195.904L235.898 200.623H235.97L237.998 197.24C238.381 196.599 238.65 196.094 238.805 195.726C238.973 195.358 239.057 195.061 239.057 194.836C239.057 194.61 238.967 194.456 238.787 194.373C238.62 194.278 238.321 194.23 237.89 194.23V193.553H242V194.23C241.749 194.23 241.521 194.266 241.318 194.337C241.127 194.408 240.923 194.551 240.708 194.764C240.492 194.978 240.253 195.275 239.99 195.655C239.739 196.035 239.428 196.533 239.057 197.151L236.293 201.781V203.9C236.293 204.482 236.311 204.951 236.347 205.307C236.394 205.651 236.484 205.918 236.616 206.108C236.759 206.298 236.957 206.429 237.208 206.5C237.471 206.559 237.818 206.589 238.249 206.589V207.266H232.434V206.589C232.865 206.589 233.206 206.559 233.457 206.5C233.72 206.429 233.918 206.304 234.049 206.126C234.193 205.936 234.289 205.675 234.336 205.342C234.384 205.01 234.408 204.571 234.408 204.024V201.852L230.819 195.762Z" fill="#2460A8"/>
<line x1="368.187" y1="-2.40413e-07" x2="368.187" y2="210" stroke="#2460A8" stroke-width="11"/>
<path d="M475.9 80.0004L496 10.0004H509.9L489 80.0004H475.9ZM433.7 80.0004L413 10.0004H426.9L446.8 80.0004H433.7ZM435.5 80.0004L454.6 10.0004H467L448 80.0004H435.5ZM474.6 80.0004L455.8 10.0004H468.2L487.7 80.0004H474.6Z" fill="#2460A8"/>
<path d="M550.335 81.2004C543.268 81.2004 537.002 79.6671 531.535 76.6004C526.135 73.4671 521.902 69.2004 518.835 63.8004C515.768 58.3337 514.235 52.1004 514.235 45.1004C514.235 37.9671 515.768 31.7004 518.835 26.3004C521.902 20.8337 526.102 16.5671 531.435 13.5004C536.835 10.4337 543.035 8.90039 550.035 8.90039C557.102 8.90039 563.302 10.4671 568.635 13.6004C574.035 16.6671 578.268 20.9337 581.335 26.4004C584.402 31.8004 585.935 38.0337 585.935 45.1004C585.935 52.1004 584.402 58.3337 581.335 63.8004C578.335 69.2004 574.135 73.4671 568.735 76.6004C563.402 79.6671 557.268 81.2004 550.335 81.2004ZM550.335 68.7004C554.602 68.7004 558.335 67.7004 561.535 65.7004C564.802 63.6337 567.335 60.8337 569.135 57.3004C571.002 53.7671 571.935 49.7004 571.935 45.1004C571.935 40.4337 571.002 36.3337 569.135 32.8004C567.268 29.2671 564.702 26.5004 561.435 24.5004C558.168 22.4337 554.368 21.4004 550.035 21.4004C545.835 21.4004 542.068 22.4337 538.735 24.5004C535.468 26.5004 532.902 29.2671 531.035 32.8004C529.168 36.3337 528.235 40.4337 528.235 45.1004C528.235 49.7004 529.168 53.7671 531.035 57.3004C532.902 60.8337 535.502 63.6337 538.835 65.7004C542.168 67.7004 546.002 68.7004 550.335 68.7004Z" fill="#2460A8"/>
<path d="M597.046 80.0004V10.0004H623.046C627.979 10.0004 632.346 10.9671 636.146 12.9004C639.946 14.8337 642.913 17.5004 645.046 20.9004C647.179 24.2337 648.246 28.1337 648.246 32.6004C648.246 37.0004 647.113 40.9337 644.846 44.4004C642.646 47.8004 639.613 50.4671 635.746 52.4004C631.879 54.2671 627.479 55.2004 622.546 55.2004H610.746V80.0004H597.046ZM635.546 80.0004L619.346 51.9004L629.846 44.4004L651.046 80.0004H635.546ZM610.746 42.7004H623.146C625.213 42.7004 627.046 42.2671 628.646 41.4004C630.313 40.5337 631.613 39.3337 632.546 37.8004C633.546 36.2671 634.046 34.5337 634.046 32.6004C634.046 29.6004 632.946 27.1671 630.746 25.3004C628.613 23.4337 625.846 22.5004 622.446 22.5004H610.746V42.7004Z" fill="#2460A8"/>
<path d="M669.699 62.3004L668.099 45.1004L700.899 10.0004H718.599L669.699 62.3004ZM661.499 80.0004V10.0004H674.999V80.0004H661.499ZM702.799 80.0004L674.899 44.4004L684.799 36.2004L719.699 80.0004H702.799Z" fill="#2460A8"/>
<path d="M728.101 80.0004V10.0004H772.401V22.5004H741.801V38.4004H768.201V50.6004H741.801V67.5004H772.801V80.0004H728.101Z" fill="#2460A8"/>
<path d="M786.987 80.0004V10.0004H812.987C817.921 10.0004 822.287 10.9671 826.087 12.9004C829.887 14.8337 832.854 17.5004 834.988 20.9004C837.121 24.2337 838.188 28.1337 838.188 32.6004C838.188 37.0004 837.054 40.9337 834.788 44.4004C832.588 47.8004 829.554 50.4671 825.688 52.4004C821.821 54.2671 817.421 55.2004 812.487 55.2004H800.688V80.0004H786.987ZM825.487 80.0004L809.288 51.9004L819.788 44.4004L840.988 80.0004H825.487ZM800.688 42.7004H813.087C815.154 42.7004 816.987 42.2671 818.587 41.4004C820.254 40.5337 821.554 39.3337 822.487 37.8004C823.487 36.2671 823.987 34.5337 823.987 32.6004C823.987 29.6004 822.887 27.1671 820.688 25.3004C818.554 23.4337 815.788 22.5004 812.388 22.5004H800.688V42.7004Z" fill="#2460A8"/>
<path d="M419.8 200V130H434.7L455.1 160.2L475.5 130H490.3V200H476.7V151.4L455.1 183.2L433.5 151.5V200H419.8Z" fill="#2460A8"/>
<path d="M554.042 200L527.242 130H540.942L568.542 200H554.042ZM498.742 200L526.342 130H540.042L513.242 200H498.742ZM511.742 184.6V172.5H555.642V184.6H511.742Z" fill="#2460A8"/>
<path d="M576.929 200V130H591.229L625.429 177V130H639.029V200H625.429L590.629 152.1V200H576.929Z" fill="#2460A8"/>
<path d="M702.773 200L675.973 130H689.673L717.273 200H702.773ZM647.473 200L675.073 130H688.773L661.973 200H647.473ZM660.473 184.6V172.5H704.373V184.6H660.473Z" fill="#2460A8"/>
<path d="M754.448 201.2C747.315 201.2 740.982 199.667 735.448 196.6C729.982 193.467 725.682 189.2 722.548 183.8C719.415 178.334 717.848 172.067 717.848 165C717.848 157.934 719.415 151.7 722.548 146.3C725.682 140.834 729.982 136.567 735.448 133.5C740.982 130.367 747.315 128.8 754.448 128.8C758.715 128.8 762.648 129.434 766.248 130.7C769.848 131.967 773.015 133.734 775.748 136C778.548 138.2 780.882 140.734 782.748 143.6L771.548 150.6C770.415 148.8 768.915 147.2 767.048 145.8C765.248 144.4 763.248 143.3 761.048 142.5C758.848 141.7 756.648 141.3 754.448 141.3C750.048 141.3 746.148 142.334 742.748 144.4C739.348 146.4 736.682 149.167 734.748 152.7C732.815 156.234 731.848 160.334 731.848 165C731.848 169.6 732.782 173.7 734.648 177.3C736.582 180.9 739.282 183.734 742.748 185.8C746.215 187.8 750.215 188.8 754.748 188.8C758.282 188.8 761.415 188.1 764.148 186.7C766.948 185.3 769.148 183.334 770.748 180.8C772.348 178.267 773.148 175.334 773.148 172L786.148 170C786.148 176.6 784.782 182.234 782.048 186.9C779.382 191.567 775.648 195.134 770.848 197.6C766.115 200 760.648 201.2 754.448 201.2ZM756.748 173.2V162.5H786.148V171L778.748 173.2H756.748Z" fill="#2460A8"/>
<path d="M796.265 200V130H840.565V142.5H809.965V158.4H836.365V170.6H809.965V187.5H840.965V200H796.265Z" fill="#2460A8"/>
<path d="M855.152 200V130H870.052L890.452 160.2L910.852 130H925.652V200H912.052V151.4L890.452 183.2L868.852 151.5V200H855.152Z" fill="#2460A8"/>
<path d="M940.894 200V130H985.194V142.5H954.594V158.4H980.994V170.6H954.594V187.5H985.594V200H940.894Z" fill="#2460A8"/>
<path d="M999.78 200V130H1014.08L1048.28 177V130H1061.88V200H1048.28L1013.48 152.1V200H999.78Z" fill="#2460A8"/>
<path d="M1091.92 200V142.5H1070.92V130H1126.52V142.5H1105.62V200H1091.92Z" fill="#2460A8"/>
</svg>
