<svg width="1192" height="210" viewBox="0 0 1192 210" fill="none" xmlns="http://www.w3.org/2000/svg">
<path d="M311.975 165.653C312.379 178.921 307.823 190.048 298.264 199.012C291.169 205.665 282.645 209.377 272.828 209.952C270.148 210.109 270.063 210.026 270.062 207.368C270.06 185.667 270.073 163.967 270.07 142.267C270.067 123.418 270.05 104.57 270.033 85.722C270.033 84.9395 269.966 84.1571 269.908 82.8861C269.219 83.613 268.829 83.9611 268.514 84.3666C259.32 96.1989 250.123 108.029 240.951 119.878C236.944 125.056 231.76 125.074 227.742 119.913C218.654 108.236 209.544 96.5749 200.438 84.9114C200.075 84.4466 199.655 84.0258 198.894 83.1732C198.83 84.603 198.755 85.499 198.755 86.395C198.747 113.923 198.747 141.452 198.745 168.98C198.745 169.166 198.746 169.352 198.746 169.538C198.745 173.616 198.508 173.818 194.326 173.317C174.811 170.978 159.624 155.986 157.15 136.566C156.884 134.482 156.749 132.366 156.748 130.265C156.725 88.4764 156.731 46.6877 156.732 4.89899C156.732 1.09967 156.93 0.928109 160.807 1.30998C173.337 2.54393 183.163 8.73639 190.652 18.3621C196.367 25.7071 201.323 33.6391 206.521 41.3734C214.528 53.2884 222.442 65.265 230.42 77.1996C232.676 80.5739 235.938 80.54 238.209 77.1336C249.823 59.7069 261.433 42.2765 273.022 24.8331C279.132 15.6364 286.693 8.07661 297.115 3.76197C300.95 2.17446 304.963 1.26124 309.15 1.28231C311.733 1.2953 311.96 1.5133 311.97 4.0167C311.984 7.61271 311.975 11.2088 311.975 14.8049C311.975 65.0258 311.975 115.247 311.975 165.653Z" fill="#00598A"/>
<path d="M93.0091 126.481C76.9523 126.424 61.083 126.364 45.2137 126.312C42.0248 126.302 41.9781 126.352 41.9761 129.546C41.9693 140.581 42.0116 151.616 41.959 162.651C41.8885 177.465 41.7498 192.278 41.6333 207.091C41.615 209.412 41.3658 209.724 39.0239 209.566C27.7428 208.807 18.3298 204.134 10.8796 195.774C3.60334 187.609 -0.0103643 178.026 2.23259e-05 167.037C0.0512926 112.791 0.0232901 58.5448 0.0234705 4.29846C0.0234874 -0.223248 0.149044 -0.332428 4.65346 0.24765C24.4843 2.80146 39.8143 18.4837 41.5939 38.2705C42.0258 43.073 41.9255 47.9282 41.952 52.7598C42.0033 62.1208 41.963 71.4824 41.9786 80.8437C41.9825 83.2221 42.2006 83.4133 44.5387 83.4127C63.8457 83.4077 83.1527 83.4019 102.46 83.3942C106.032 83.3927 106.038 83.3883 106.038 79.736C106.041 54.7517 106.041 29.7674 106.042 4.78308C106.042 4.22512 106.037 3.66706 106.046 3.10922C106.084 0.686055 106.332 0.378087 108.754 0.498029C132.083 1.6535 146.469 15.8788 147.602 37.7961C148.453 54.2463 148.033 70.7644 148.064 87.2525C148.114 114.283 148.07 141.313 148.065 168.343C148.065 168.777 148.071 169.211 148.059 169.645C148 171.671 147.63 172.035 145.577 171.899C140.67 171.572 135.869 170.603 131.448 168.482C115.367 160.766 106.911 147.961 106.064 130.263C105.883 126.492 106.005 126.485 102.193 126.483C99.1945 126.481 96.1955 126.482 93.0091 126.481Z" fill="#00598A"/>
<path d="M82.7105 193.553H83.2131L83.3746 197.649H82.7105C82.4473 196.604 81.9388 195.785 81.185 195.192C80.4312 194.598 79.5218 194.301 78.4569 194.301C77.727 194.301 77.0749 194.444 76.5006 194.729C75.9263 195.014 75.4417 195.423 75.0468 195.957C74.652 196.492 74.3469 197.145 74.1315 197.916C73.9281 198.688 73.8264 199.561 73.8264 200.534C73.8264 202.446 74.2272 203.918 75.0289 204.951C75.8305 205.972 76.9912 206.482 78.5107 206.482C80.82 206.482 82.3037 205.265 82.9618 202.831H83.6976V207.266H83.0695L82.6567 205.859C81.4003 206.915 79.8808 207.444 78.098 207.444C77.0809 207.444 76.1596 207.283 75.334 206.963C74.5204 206.642 73.8204 206.191 73.2341 205.609C72.6598 205.016 72.2111 204.298 71.888 203.455C71.5769 202.612 71.4214 201.674 71.4214 200.641C71.4214 199.561 71.5889 198.575 71.9239 197.685C72.2589 196.794 72.7256 196.029 73.3238 195.388C73.9341 194.747 74.658 194.254 75.4955 193.91C76.345 193.553 77.2783 193.375 78.2954 193.375C79.0133 193.375 79.6893 193.476 80.3235 193.678C80.9576 193.88 81.6456 194.206 82.3875 194.657L82.7105 193.553Z" fill="#292D32"/>
<path fill-rule="evenodd" clip-rule="evenodd" d="M104.172 193.375C105.225 193.375 106.206 193.56 107.115 193.928C108.024 194.296 108.814 194.8 109.484 195.441C110.154 196.082 110.681 196.837 111.063 197.703C111.446 198.57 111.638 199.508 111.638 200.517C111.638 201.478 111.441 202.381 111.046 203.224C110.663 204.066 110.136 204.803 109.466 205.432C108.796 206.049 108.007 206.541 107.098 206.909C106.188 207.265 105.213 207.443 104.172 207.443C103.131 207.443 102.155 207.265 101.246 206.909C100.337 206.541 99.5469 206.049 98.877 205.432C98.207 204.802 97.6741 204.066 97.2793 203.224C96.8964 202.381 96.7051 201.478 96.7051 200.517C96.7051 199.508 96.8966 198.57 97.2793 197.703C97.6622 196.836 98.1894 196.082 98.8594 195.441C99.5294 194.8 100.319 194.296 101.229 193.928C102.138 193.56 103.119 193.375 104.172 193.375ZM104.172 194.354C103.382 194.354 102.67 194.503 102.036 194.8C101.402 195.085 100.864 195.501 100.421 196.047C99.9782 196.581 99.6368 197.234 99.3975 198.006C99.1583 198.765 99.0391 199.62 99.0391 200.569C99.0391 201.472 99.1582 202.291 99.3975 203.027C99.6368 203.751 99.9782 204.368 100.421 204.879C100.864 205.389 101.402 205.782 102.036 206.055C102.67 206.328 103.382 206.464 104.172 206.464C104.961 206.464 105.667 206.328 106.289 206.055C106.923 205.782 107.463 205.389 107.905 204.879C108.36 204.368 108.707 203.751 108.946 203.027C109.186 202.291 109.305 201.472 109.305 200.569C109.305 199.62 109.185 198.765 108.946 198.006C108.707 197.234 108.365 196.581 107.923 196.047C107.48 195.501 106.942 195.085 106.308 194.8C105.674 194.503 104.962 194.355 104.172 194.354Z" fill="#292D32"/>
<path d="M133.258 204.078L137.924 193.553H141.944V194.23C141.562 194.242 141.25 194.289 141.011 194.373C140.784 194.456 140.604 194.598 140.473 194.8C140.353 194.99 140.269 195.257 140.221 195.601C140.186 195.946 140.168 196.385 140.168 196.919V203.9C140.168 204.493 140.192 204.962 140.239 205.307C140.287 205.651 140.377 205.918 140.509 206.108C140.652 206.298 140.85 206.423 141.101 206.482C141.364 206.541 141.705 206.577 142.124 206.589V207.266H136.309V206.589C136.728 206.577 137.063 206.541 137.314 206.482C137.577 206.411 137.781 206.286 137.924 206.108C138.068 205.93 138.163 205.681 138.211 205.36C138.259 205.028 138.283 204.582 138.283 204.025V195.762H138.104L132.863 207.444H132.468L127.317 195.762H127.245V203.9C127.245 204.493 127.269 204.962 127.317 205.307C127.365 205.651 127.455 205.918 127.586 206.108C127.73 206.298 127.927 206.423 128.179 206.482C128.442 206.541 128.783 206.577 129.202 206.589V207.266H124.194V206.589C124.613 206.577 124.948 206.541 125.199 206.482C125.462 206.411 125.666 206.286 125.809 206.108C125.953 205.93 126.049 205.681 126.097 205.36C126.144 205.028 126.168 204.582 126.168 204.025V196.794C126.168 196.296 126.144 195.886 126.097 195.566C126.061 195.233 125.977 194.972 125.845 194.782C125.726 194.592 125.546 194.462 125.307 194.39C125.068 194.307 124.756 194.254 124.374 194.23V193.553H128.663L133.186 204.078H133.258Z" fill="#292D32"/>
<path fill-rule="evenodd" clip-rule="evenodd" d="M160.518 193.554C162.169 193.554 163.443 193.856 164.341 194.462C165.25 195.067 165.704 195.91 165.704 196.99C165.704 197.619 165.603 198.183 165.399 198.682C165.196 199.18 164.873 199.602 164.431 199.946C164 200.291 163.431 200.558 162.726 200.748C162.032 200.938 161.182 201.033 160.177 201.033H158.562V204.47C158.562 204.909 158.585 205.271 158.633 205.556C158.693 205.829 158.806 206.043 158.974 206.197C159.153 206.352 159.405 206.458 159.728 206.518C160.063 206.565 160.5 206.589 161.038 206.589V207.266H154.702V206.589C155.121 206.577 155.457 206.542 155.708 206.482C155.971 206.423 156.174 206.322 156.317 206.18C156.461 206.037 156.557 205.835 156.604 205.574C156.652 205.313 156.677 204.974 156.677 204.559V196.26C156.677 195.844 156.652 195.512 156.604 195.263C156.569 195.002 156.485 194.8 156.354 194.657C156.234 194.503 156.055 194.402 155.815 194.354C155.576 194.295 155.265 194.254 154.882 194.23V193.554H160.518ZM158.866 194.391C158.663 194.391 158.562 194.492 158.562 194.693V200.143H159.836C161.032 200.143 161.918 199.917 162.492 199.466C163.078 199.003 163.371 198.249 163.371 197.204C163.371 196.195 163.138 195.476 162.671 195.049C162.216 194.61 161.498 194.391 160.518 194.391H158.866Z" fill="#292D32"/>
<path fill-rule="evenodd" clip-rule="evenodd" d="M187.491 203.597C187.766 204.262 188.006 204.797 188.209 205.2C188.412 205.592 188.61 205.888 188.802 206.09C188.993 206.292 189.197 206.423 189.412 206.482C189.639 206.542 189.909 206.571 190.22 206.571V207.266H184.368V206.571C185.002 206.571 185.439 206.511 185.679 206.393C185.918 206.274 186.038 206.078 186.038 205.806C186.038 205.687 186.031 205.579 186.02 205.484C186.008 205.378 185.984 205.265 185.948 205.146C185.924 205.028 185.882 204.897 185.822 204.755C185.774 204.601 185.709 204.422 185.625 204.221L184.889 202.297H180.097C179.893 202.784 179.72 203.217 179.576 203.597C179.433 203.965 179.313 204.286 179.218 204.559C179.134 204.831 179.074 205.063 179.038 205.253C179.002 205.443 178.984 205.597 178.984 205.716C178.984 206.048 179.092 206.281 179.308 206.411C179.523 206.53 179.882 206.589 180.384 206.589V207.266H176.022V206.589C176.298 206.553 176.531 206.506 176.723 206.446C176.926 206.387 177.1 206.304 177.243 206.197C177.399 206.09 177.53 205.953 177.638 205.787C177.757 205.609 177.872 205.396 177.979 205.146L182.646 193.554H183.417L187.491 203.597ZM180.456 201.406H184.548L182.556 196.153L180.456 201.406Z" fill="#292D32"/>
<path d="M213.398 207.444L204.873 196.296H204.801V203.9C204.801 204.493 204.819 204.962 204.855 205.307C204.903 205.651 204.987 205.918 205.106 206.108C205.238 206.298 205.417 206.423 205.645 206.482C205.884 206.541 206.195 206.577 206.578 206.589V207.266H201.75V206.589C202.169 206.577 202.504 206.541 202.755 206.482C203.018 206.411 203.222 206.286 203.365 206.108C203.509 205.93 203.605 205.681 203.653 205.36C203.7 205.028 203.724 204.582 203.724 204.025V196.794C203.724 196.296 203.7 195.886 203.653 195.566C203.617 195.233 203.533 194.972 203.401 194.782C203.282 194.592 203.102 194.462 202.863 194.39C202.624 194.307 202.313 194.254 201.93 194.23V193.553H205.483L213.326 203.935H213.398V196.919C213.398 196.337 213.374 195.874 213.326 195.53C213.291 195.174 213.207 194.901 213.075 194.711C212.956 194.521 212.776 194.396 212.537 194.337C212.309 194.278 212.004 194.242 211.621 194.23V193.553H216.449V194.23C216.031 194.242 215.69 194.284 215.426 194.355C215.175 194.414 214.978 194.533 214.834 194.711C214.691 194.889 214.595 195.144 214.547 195.477C214.499 195.809 214.475 196.248 214.475 196.794V207.444H213.398Z" fill="#292D32"/>
<path d="M230.132 195.762C229.952 195.453 229.785 195.204 229.629 195.014C229.474 194.812 229.312 194.652 229.145 194.533C228.989 194.414 228.822 194.337 228.642 194.301C228.463 194.254 228.247 194.23 227.996 194.23V193.553H233.65V194.23C233.051 194.23 232.627 194.278 232.375 194.373C232.136 194.456 232.016 194.61 232.016 194.836C232.016 195.085 232.154 195.441 232.429 195.904L235.211 200.623H235.283L237.311 197.24C237.694 196.599 237.963 196.094 238.119 195.726C238.286 195.358 238.37 195.061 238.37 194.836C238.37 194.61 238.28 194.456 238.101 194.373C237.933 194.278 237.634 194.23 237.203 194.23V193.553H241.313V194.23C241.062 194.23 240.835 194.266 240.631 194.337C240.44 194.408 240.236 194.551 240.021 194.764C239.806 194.978 239.566 195.275 239.303 195.655C239.052 196.035 238.741 196.533 238.37 197.151L235.606 201.781V203.9C235.606 204.482 235.624 204.951 235.66 205.307C235.708 205.651 235.797 205.918 235.929 206.108C236.072 206.298 236.27 206.429 236.521 206.5C236.784 206.559 237.131 206.589 237.562 206.589V207.266H231.747V206.589C232.178 206.589 232.519 206.559 232.77 206.5C233.033 206.429 233.231 206.304 233.362 206.126C233.506 205.936 233.602 205.675 233.65 205.342C233.697 205.01 233.721 204.571 233.721 204.025V201.852L230.132 195.762Z" fill="#292D32"/>
<path d="M412 165.59V45.0661H451.742C460 45.0661 467.111 46.3287 473.075 48.854C479.154 51.3792 483.857 55.1671 487.183 60.2176C490.509 65.1533 492.172 71.3517 492.172 78.8127C492.172 83.978 490.91 88.6267 488.387 92.759C485.978 96.8912 482.538 100.335 478.064 103.09C483.914 105.959 488.387 109.804 491.484 114.625C494.581 119.446 496.129 125.185 496.129 131.843C496.129 138.96 494.523 145.043 491.312 150.094C488.1 155.144 483.57 158.989 477.72 161.629C471.871 164.27 464.932 165.59 456.903 165.59H412ZM431.613 147.683H455.355C461.663 147.683 466.652 146.134 470.322 143.034C473.993 139.935 475.828 135.746 475.828 130.466C475.828 124.726 473.763 120.25 469.634 117.036C465.62 113.822 459.943 112.215 452.602 112.215H431.613V147.683ZM431.613 95.6859H453.462C459.197 95.6859 463.67 94.1938 466.882 91.2094C470.208 88.1102 471.871 83.8632 471.871 78.4683C471.871 72.9587 469.978 68.769 466.193 65.8994C462.523 62.9151 457.362 61.4229 450.71 61.4229H431.613V95.6859Z" fill="#292D32"/>
<path d="M563.278 168C553.758 168 545.386 166.106 538.16 162.318C531.049 158.416 525.486 152.963 521.472 145.961C517.572 138.96 515.622 130.81 515.622 121.512V45.0661H535.579V121.512C535.579 127.137 536.726 132.073 539.02 136.32C541.429 140.452 544.755 143.723 548.998 146.134C553.242 148.429 558.117 149.577 563.622 149.577C569.242 149.577 574.174 148.429 578.418 146.134C582.776 143.723 586.102 140.452 588.396 136.32C590.69 132.073 591.837 127.137 591.837 121.512V45.0661H611.794V121.512C611.794 130.81 609.787 138.96 605.773 145.961C601.873 152.963 596.253 158.416 588.912 162.318C581.687 166.106 573.142 168 563.278 168Z" fill="#292D32"/>
<path d="M638.646 165.59V45.0661H658.603V165.59H638.646Z" fill="#292D32"/>
<path d="M687.201 165.59V45.0661H707.158V147.339H761.696V165.59H687.201Z" fill="#292D32"/>
<path d="M778.431 165.59V45.0661H816.28C828.094 45.0661 838.531 47.6488 847.592 52.814C856.768 57.8646 863.936 64.9238 869.097 73.9917C874.373 83.0597 877.011 93.5051 877.011 105.328C877.011 117.036 874.373 127.424 869.097 136.492C863.936 145.56 856.768 152.676 847.592 157.842C838.531 163.007 828.094 165.59 816.28 165.59H778.431ZM798.388 146.994H816.28C821.9 146.994 827.176 145.961 832.108 143.895C837.04 141.714 841.341 138.73 845.011 134.942C848.682 131.154 851.549 126.735 853.613 121.685C855.678 116.634 856.71 111.182 856.71 105.328C856.71 99.4738 855.678 94.0216 853.613 88.9711C851.549 83.9206 848.682 79.5014 845.011 75.7135C841.341 71.9256 837.04 68.9986 832.108 66.9325C827.176 64.7516 821.9 63.6612 816.28 63.6612H798.388V146.994Z" fill="#292D32"/>
<path d="M898.054 165.59V45.0661H972.205V63.3168H918.011V95.3416H965.839V113.248H918.011V147.339H972.721V165.59H898.054Z" fill="#292D32"/>
<path d="M999.533 165.59V45.0661H1042.03C1050.29 45.0661 1057.57 46.6731 1063.88 49.887C1070.18 53.101 1075.12 57.5776 1078.67 63.3168C1082.23 68.9412 1084.01 75.4839 1084.01 82.9449C1084.01 90.4059 1082.11 97.006 1078.33 102.745C1074.66 108.484 1069.55 113.018 1063.02 116.347C1056.48 119.561 1049.08 121.168 1040.82 121.168H1019.49V165.59H999.533ZM1066.29 165.59L1038.07 116.691L1053.55 106.017L1088.82 165.59H1066.29ZM1019.49 102.745H1042.89C1046.79 102.745 1050.23 101.884 1053.21 100.163C1056.31 98.4408 1058.77 96.0877 1060.61 93.1033C1062.56 90.1189 1063.53 86.7328 1063.53 82.9449C1063.53 77.2057 1061.47 72.4995 1057.34 68.8264C1053.21 65.1533 1047.88 63.3168 1041.34 63.3168H1019.49V102.745Z" fill="#292D32"/>
<path d="M1148.65 167.656C1142.34 167.656 1136.54 166.91 1131.27 165.417C1126.11 163.925 1121.52 161.859 1117.51 159.219C1113.61 156.579 1110.34 153.652 1107.7 150.438C1105.18 147.109 1103.4 143.666 1102.37 140.107L1121.98 134.081C1123.47 138.328 1126.39 142.059 1130.75 145.273C1135.11 148.487 1140.5 150.151 1146.92 150.266C1154.38 150.266 1160.29 148.716 1164.65 145.617C1169 142.518 1171.18 138.443 1171.18 133.393C1171.18 128.801 1169.35 125.071 1165.68 122.201C1162.01 119.217 1157.08 116.921 1150.88 115.314L1136.09 111.526C1130.47 110.034 1125.36 107.853 1120.77 104.983C1116.3 102.114 1112.75 98.4982 1110.11 94.1364C1107.58 89.7746 1106.32 84.6093 1106.32 78.6405C1106.32 67.3916 1109.99 58.668 1117.33 52.4697C1124.67 46.1566 1135.17 43 1148.82 43C1156.5 43 1163.21 44.2052 1168.95 46.6157C1174.8 48.9114 1179.61 52.1253 1183.4 56.2576C1187.18 60.275 1189.99 64.8664 1191.83 70.0317L1172.56 76.23C1170.84 71.6387 1167.86 67.8508 1163.61 64.8664C1159.37 61.882 1154.09 60.3898 1147.79 60.3898C1141.25 60.3898 1136.09 61.9394 1132.3 65.0386C1128.63 68.1377 1126.8 72.4421 1126.8 77.9518C1126.8 82.4284 1128.23 85.9293 1131.1 88.4545C1134.08 90.865 1138.09 92.7016 1143.14 93.9642L1157.94 97.5799C1168.72 100.22 1177.09 104.754 1183.05 111.182C1189.02 117.61 1192 124.726 1192 132.532C1192 139.419 1190.34 145.502 1187.01 150.782C1183.68 156.062 1178.75 160.195 1172.22 163.179C1165.79 166.163 1157.94 167.656 1148.65 167.656Z" fill="#292D32"/>
<line x1="364.5" y1="2.5" x2="364.5" y2="202.5" stroke="#292D32" stroke-width="5" stroke-linecap="round"/>
</svg>
