<svg width="1126" height="210" viewBox="0 0 1126 210" fill="none" xmlns="http://www.w3.org/2000/svg">
<path d="M311.975 165.653C312.379 178.921 307.823 190.048 298.264 199.012C291.169 205.665 282.645 209.377 272.828 209.952C270.148 210.109 270.063 210.026 270.062 207.368C270.06 185.667 270.073 163.967 270.07 142.267C270.067 123.418 270.05 104.57 270.033 85.722C270.033 84.9395 269.966 84.1571 269.908 82.8861C269.219 83.613 268.829 83.9611 268.514 84.3666C259.32 96.1989 250.123 108.029 240.951 119.878C236.943 125.056 231.759 125.074 227.742 119.913C218.654 108.236 209.544 96.5749 200.438 84.9114C200.075 84.4466 199.655 84.0258 198.894 83.1732C198.83 84.603 198.755 85.499 198.755 86.395C198.747 113.923 198.747 141.452 198.745 168.98C198.745 169.166 198.746 169.352 198.745 169.538C198.745 173.616 198.508 173.818 194.326 173.317C174.811 170.978 159.624 155.986 157.15 136.566C156.884 134.482 156.749 132.366 156.748 130.265C156.725 88.4764 156.731 46.6877 156.732 4.89899C156.732 1.09967 156.93 0.928109 160.807 1.30997C173.337 2.54393 183.163 8.73639 190.652 18.3621C196.367 25.7071 201.323 33.6391 206.521 41.3734C214.528 53.2884 222.442 65.265 230.42 77.1996C232.676 80.5739 235.938 80.54 238.209 77.1336C249.823 59.7069 261.433 42.2765 273.022 24.8331C279.132 15.6364 286.693 8.07661 297.115 3.76197C300.95 2.17446 304.963 1.26124 309.15 1.28231C311.733 1.2953 311.96 1.5133 311.97 4.0167C311.984 7.61271 311.975 11.2088 311.975 14.8049C311.975 65.0258 311.975 115.247 311.975 165.653Z" fill="white"/>
<path d="M93.0091 126.481C76.9523 126.424 61.083 126.364 45.2137 126.312C42.0248 126.302 41.9781 126.352 41.9761 129.546C41.9693 140.581 42.0116 151.616 41.959 162.651C41.8885 177.465 41.7498 192.278 41.6333 207.091C41.615 209.412 41.3658 209.724 39.0239 209.566C27.7428 208.807 18.3298 204.134 10.8796 195.774C3.60334 187.609 -0.0103643 178.026 2.23259e-05 167.037C0.0512926 112.791 0.0232901 58.5448 0.0234705 4.29846C0.0234874 -0.223247 0.149044 -0.332428 4.65346 0.24765C24.4843 2.80146 39.8143 18.4837 41.5939 38.2705C42.0258 43.073 41.9255 47.9282 41.952 52.7598C42.0033 62.1208 41.963 71.4824 41.9786 80.8437C41.9825 83.2221 42.2006 83.4133 44.5387 83.4127C63.8457 83.4077 83.1527 83.4019 102.46 83.3942C106.032 83.3927 106.038 83.3883 106.038 79.736C106.041 54.7517 106.041 29.7674 106.042 4.78308C106.042 4.22512 106.037 3.66706 106.046 3.10922C106.084 0.686055 106.332 0.378087 108.754 0.498029C132.083 1.6535 146.469 15.8788 147.602 37.7961C148.453 54.2463 148.033 70.7644 148.064 87.2525C148.114 114.283 148.07 141.313 148.065 168.343C148.065 168.777 148.071 169.211 148.059 169.645C148 171.671 147.63 172.035 145.577 171.899C140.67 171.572 135.869 170.603 131.448 168.482C115.367 160.766 106.911 147.961 106.064 130.263C105.883 126.492 106.005 126.485 102.193 126.483C99.1945 126.481 96.1955 126.482 93.0091 126.481Z" fill="white"/>
<path d="M82.7105 193.553H83.2131L83.3746 197.649H82.7105C82.4473 196.604 81.9388 195.785 81.185 195.192C80.4312 194.598 79.5218 194.301 78.4569 194.301C77.727 194.301 77.0749 194.444 76.5006 194.729C75.9263 195.014 75.4417 195.423 75.0468 195.957C74.652 196.492 74.3469 197.145 74.1315 197.916C73.9281 198.688 73.8264 199.561 73.8264 200.534C73.8264 202.446 74.2272 203.918 75.0289 204.951C75.8305 205.972 76.9912 206.482 78.5107 206.482C80.82 206.482 82.3037 205.265 82.9618 202.831H83.6976V207.266H83.0695L82.6567 205.859C81.4003 206.915 79.8808 207.444 78.098 207.444C77.0809 207.444 76.1596 207.283 75.334 206.963C74.5204 206.642 73.8204 206.191 73.2341 205.609C72.6598 205.016 72.2111 204.298 71.888 203.455C71.5769 202.612 71.4214 201.674 71.4214 200.641C71.4214 199.561 71.5889 198.575 71.9239 197.685C72.2589 196.794 72.7256 196.029 73.3238 195.388C73.9341 194.747 74.658 194.254 75.4955 193.91C76.345 193.553 77.2783 193.375 78.2954 193.375C79.0133 193.375 79.6893 193.476 80.3235 193.678C80.9576 193.88 81.6456 194.206 82.3875 194.657L82.7105 193.553Z" fill="white"/>
<path d="M104.172 193.375C105.225 193.375 106.206 193.559 107.115 193.927C108.024 194.295 108.814 194.8 109.484 195.441C110.154 196.082 110.681 196.836 111.064 197.703C111.447 198.569 111.638 199.507 111.638 200.516C111.638 201.478 111.441 202.38 111.046 203.223C110.663 204.066 110.136 204.802 109.466 205.431C108.796 206.049 108.007 206.541 107.097 206.909C106.188 207.266 105.213 207.444 104.172 207.444C103.131 207.444 102.156 207.266 101.246 206.909C100.337 206.541 99.5472 206.049 98.8771 205.431C98.2071 204.802 97.6746 204.066 97.2798 203.223C96.8969 202.38 96.7054 201.478 96.7054 200.516C96.7054 199.507 96.8969 198.569 97.2798 197.703C97.6626 196.836 98.1891 196.082 98.8592 195.441C99.5292 194.8 100.319 194.295 101.228 193.927C102.138 193.559 103.119 193.375 104.172 193.375ZM104.172 206.464C104.961 206.464 105.667 206.328 106.29 206.055C106.924 205.782 107.462 205.39 107.905 204.879C108.36 204.369 108.706 203.751 108.946 203.027C109.185 202.291 109.305 201.472 109.305 200.57C109.305 199.62 109.185 198.765 108.946 198.005C108.706 197.234 108.365 196.581 107.923 196.047C107.48 195.5 106.942 195.085 106.307 194.8C105.673 194.503 104.961 194.355 104.172 194.355C103.382 194.355 102.67 194.503 102.036 194.8C101.402 195.085 100.863 195.5 100.421 196.047C99.9779 196.581 99.6369 197.234 99.3976 198.005C99.1583 198.765 99.0386 199.62 99.0386 200.57C99.0386 201.472 99.1583 202.291 99.3976 203.027C99.6369 203.751 99.9779 204.369 100.421 204.879C100.863 205.39 101.402 205.782 102.036 206.055C102.67 206.328 103.382 206.464 104.172 206.464Z" fill="white"/>
<path d="M133.258 204.078L137.924 193.553H141.944V194.23C141.562 194.242 141.25 194.289 141.011 194.373C140.784 194.456 140.604 194.598 140.473 194.8C140.353 194.99 140.269 195.257 140.221 195.601C140.186 195.946 140.168 196.385 140.168 196.919V203.9C140.168 204.493 140.192 204.962 140.239 205.307C140.287 205.651 140.377 205.918 140.509 206.108C140.652 206.298 140.85 206.423 141.101 206.482C141.364 206.541 141.705 206.577 142.124 206.589V207.266H136.309V206.589C136.728 206.577 137.063 206.541 137.314 206.482C137.577 206.411 137.781 206.286 137.924 206.108C138.068 205.93 138.163 205.681 138.211 205.36C138.259 205.028 138.283 204.582 138.283 204.024V195.762H138.104L132.863 207.444H132.468L127.317 195.762H127.245V203.9C127.245 204.493 127.269 204.962 127.317 205.307C127.365 205.651 127.455 205.918 127.586 206.108C127.73 206.298 127.927 206.423 128.179 206.482C128.442 206.541 128.783 206.577 129.202 206.589V207.266H124.194V206.589C124.613 206.577 124.948 206.541 125.199 206.482C125.462 206.411 125.666 206.286 125.809 206.108C125.953 205.93 126.049 205.681 126.097 205.36C126.144 205.028 126.168 204.582 126.168 204.024V196.794C126.168 196.296 126.144 195.886 126.097 195.566C126.061 195.233 125.977 194.972 125.845 194.782C125.726 194.592 125.546 194.462 125.307 194.39C125.068 194.307 124.756 194.254 124.374 194.23V193.553H128.663L133.186 204.078H133.258Z" fill="white"/>
<path d="M165.704 196.99C165.704 197.62 165.603 198.183 165.399 198.682C165.196 199.181 164.873 199.602 164.43 199.946C163.999 200.291 163.431 200.558 162.725 200.748C162.031 200.938 161.182 201.033 160.177 201.033H158.561V204.47C158.561 204.909 158.585 205.271 158.633 205.556C158.693 205.829 158.807 206.043 158.974 206.197C159.154 206.351 159.405 206.458 159.728 206.518C160.063 206.565 160.5 206.589 161.038 206.589V207.266H154.702V206.589C155.121 206.577 155.456 206.541 155.708 206.482C155.971 206.423 156.174 206.322 156.318 206.179C156.461 206.037 156.557 205.835 156.605 205.574C156.653 205.313 156.677 204.974 156.677 204.559V196.26C156.677 195.845 156.653 195.512 156.605 195.263C156.569 195.002 156.485 194.8 156.354 194.657C156.234 194.503 156.055 194.402 155.815 194.355C155.576 194.295 155.265 194.254 154.882 194.23V193.553H160.518C162.169 193.553 163.443 193.856 164.34 194.462C165.25 195.067 165.704 195.91 165.704 196.99ZM158.561 200.142H159.836C161.032 200.142 161.918 199.917 162.492 199.466C163.078 199.003 163.371 198.249 163.371 197.204C163.371 196.195 163.138 195.477 162.671 195.049C162.217 194.61 161.499 194.39 160.518 194.39H158.866C158.663 194.39 158.561 194.491 158.561 194.693V200.142Z" fill="white"/>
<path d="M184.889 202.297H180.097C179.893 202.784 179.72 203.217 179.576 203.597C179.433 203.965 179.313 204.286 179.217 204.559C179.134 204.832 179.074 205.063 179.038 205.253C179.002 205.443 178.984 205.598 178.984 205.716C178.984 206.049 179.092 206.28 179.307 206.411C179.523 206.529 179.882 206.589 180.384 206.589V207.266H176.023V206.589C176.298 206.553 176.531 206.506 176.723 206.446C176.926 206.387 177.1 206.304 177.243 206.197C177.399 206.09 177.53 205.954 177.638 205.787C177.758 205.609 177.871 205.396 177.979 205.146L182.645 193.553H183.417L187.491 203.597C187.767 204.262 188.006 204.796 188.209 205.2C188.413 205.592 188.61 205.888 188.802 206.09C188.993 206.292 189.196 206.423 189.412 206.482C189.639 206.541 189.908 206.571 190.219 206.571V207.266H184.368V206.571C185.003 206.571 185.439 206.512 185.679 206.393C185.918 206.274 186.038 206.078 186.038 205.805C186.038 205.687 186.032 205.58 186.02 205.485C186.008 205.378 185.984 205.265 185.948 205.146C185.924 205.028 185.882 204.897 185.822 204.755C185.774 204.6 185.709 204.422 185.625 204.22L184.889 202.297ZM180.456 201.407H184.548L182.556 196.153L180.456 201.407Z" fill="white"/>
<path d="M213.398 207.444L204.873 196.296H204.801V203.9C204.801 204.493 204.819 204.962 204.855 205.307C204.903 205.651 204.987 205.918 205.106 206.108C205.238 206.298 205.418 206.423 205.645 206.482C205.884 206.541 206.195 206.577 206.578 206.589V207.266H201.75V206.589C202.169 206.577 202.504 206.541 202.755 206.482C203.018 206.411 203.222 206.286 203.365 206.108C203.509 205.93 203.605 205.681 203.653 205.36C203.7 205.028 203.724 204.582 203.724 204.024V196.794C203.724 196.296 203.7 195.886 203.653 195.566C203.617 195.233 203.533 194.972 203.401 194.782C203.282 194.592 203.102 194.462 202.863 194.39C202.624 194.307 202.313 194.254 201.93 194.23V193.553H205.483L213.326 203.935H213.398V196.919C213.398 196.337 213.374 195.874 213.326 195.53C213.291 195.174 213.207 194.901 213.075 194.711C212.956 194.521 212.776 194.396 212.537 194.337C212.309 194.278 212.004 194.242 211.621 194.23V193.553H216.449V194.23C216.031 194.242 215.69 194.284 215.426 194.355C215.175 194.414 214.978 194.533 214.834 194.711C214.691 194.889 214.595 195.144 214.547 195.477C214.499 195.809 214.475 196.248 214.475 196.794V207.444H213.398Z" fill="white"/>
<path d="M230.132 195.762C229.952 195.453 229.785 195.204 229.629 195.014C229.474 194.812 229.312 194.652 229.145 194.533C228.989 194.414 228.822 194.337 228.642 194.301C228.463 194.254 228.247 194.23 227.996 194.23V193.553H233.65V194.23C233.051 194.23 232.627 194.278 232.375 194.373C232.136 194.456 232.016 194.61 232.016 194.836C232.016 195.085 232.154 195.441 232.429 195.904L235.211 200.623H235.283L237.311 197.24C237.694 196.599 237.963 196.094 238.119 195.726C238.286 195.358 238.37 195.061 238.37 194.836C238.37 194.61 238.28 194.456 238.101 194.373C237.933 194.278 237.634 194.23 237.203 194.23V193.553H241.313V194.23C241.062 194.23 240.835 194.266 240.631 194.337C240.44 194.408 240.236 194.551 240.021 194.764C239.806 194.978 239.566 195.275 239.303 195.655C239.052 196.035 238.741 196.533 238.37 197.151L235.606 201.781V203.9C235.606 204.482 235.624 204.951 235.66 205.307C235.708 205.651 235.797 205.918 235.929 206.108C236.072 206.298 236.27 206.429 236.521 206.5C236.784 206.559 237.131 206.589 237.562 206.589V207.266H231.747V206.589C232.178 206.589 232.519 206.559 232.77 206.5C233.033 206.429 233.231 206.304 233.362 206.126C233.506 205.936 233.602 205.675 233.65 205.342C233.697 205.01 233.721 204.571 233.721 204.024V201.852L230.132 195.762Z" fill="white"/>
<line x1="367.5" y1="-2.40413e-07" x2="367.5" y2="210" stroke="white" stroke-width="11"/>
<path d="M475.213 80.0004L495.313 10.0004H509.213L488.313 80.0004H475.213ZM433.013 80.0004L412.313 10.0004H426.213L446.113 80.0004H433.013ZM434.813 80.0004L453.913 10.0004H466.313L447.313 80.0004H434.813ZM473.913 80.0004L455.113 10.0004H467.513L487.013 80.0004H473.913Z" fill="white"/>
<path d="M549.648 81.2004C542.582 81.2004 536.315 79.6671 530.848 76.6004C525.448 73.4671 521.215 69.2004 518.148 63.8004C515.082 58.3337 513.548 52.1004 513.548 45.1004C513.548 37.9671 515.082 31.7004 518.148 26.3004C521.215 20.8337 525.415 16.5671 530.748 13.5004C536.148 10.4337 542.348 8.90039 549.348 8.90039C556.415 8.90039 562.615 10.4671 567.948 13.6004C573.348 16.6671 577.582 20.9337 580.648 26.4004C583.715 31.8004 585.248 38.0337 585.248 45.1004C585.248 52.1004 583.715 58.3337 580.648 63.8004C577.648 69.2004 573.448 73.4671 568.048 76.6004C562.715 79.6671 556.582 81.2004 549.648 81.2004ZM549.648 68.7004C553.915 68.7004 557.648 67.7004 560.848 65.7004C564.115 63.6337 566.648 60.8337 568.448 57.3004C570.315 53.7671 571.248 49.7004 571.248 45.1004C571.248 40.4337 570.315 36.3337 568.448 32.8004C566.582 29.2671 564.015 26.5004 560.748 24.5004C557.482 22.4337 553.682 21.4004 549.348 21.4004C545.148 21.4004 541.382 22.4337 538.048 24.5004C534.782 26.5004 532.215 29.2671 530.348 32.8004C528.482 36.3337 527.548 40.4337 527.548 45.1004C527.548 49.7004 528.482 53.7671 530.348 57.3004C532.215 60.8337 534.815 63.6337 538.148 65.7004C541.482 67.7004 545.315 68.7004 549.648 68.7004Z" fill="white"/>
<path d="M596.359 80.0004V10.0004H622.359C627.293 10.0004 631.659 10.9671 635.459 12.9004C639.259 14.8337 642.226 17.5004 644.359 20.9004C646.493 24.2337 647.559 28.1337 647.559 32.6004C647.559 37.0004 646.426 40.9337 644.159 44.4004C641.959 47.8004 638.926 50.4671 635.059 52.4004C631.193 54.2671 626.793 55.2004 621.859 55.2004H610.059V80.0004H596.359ZM634.859 80.0004L618.659 51.9004L629.159 44.4004L650.359 80.0004H634.859ZM610.059 42.7004H622.459C624.526 42.7004 626.359 42.2671 627.959 41.4004C629.626 40.5337 630.926 39.3337 631.859 37.8004C632.859 36.2671 633.359 34.5337 633.359 32.6004C633.359 29.6004 632.259 27.1671 630.059 25.3004C627.926 23.4337 625.159 22.5004 621.759 22.5004H610.059V42.7004Z" fill="white"/>
<path d="M669.012 62.3004L667.412 45.1004L700.212 10.0004H717.912L669.012 62.3004ZM660.812 80.0004V10.0004H674.312V80.0004H660.812ZM702.112 80.0004L674.212 44.4004L684.112 36.2004L719.012 80.0004H702.112Z" fill="white"/>
<path d="M727.414 80.0004V10.0004H771.714V22.5004H741.114V38.4004H767.514V50.6004H741.114V67.5004H772.114V80.0004H727.414Z" fill="white"/>
<path d="M786.301 80.0004V10.0004H812.301C817.234 10.0004 821.601 10.9671 825.401 12.9004C829.201 14.8337 832.167 17.5004 834.301 20.9004C836.434 24.2337 837.501 28.1337 837.501 32.6004C837.501 37.0004 836.367 40.9337 834.101 44.4004C831.901 47.8004 828.867 50.4671 825.001 52.4004C821.134 54.2671 816.734 55.2004 811.801 55.2004H800.001V80.0004H786.301ZM824.801 80.0004L808.601 51.9004L819.101 44.4004L840.301 80.0004H824.801ZM800.001 42.7004H812.401C814.467 42.7004 816.301 42.2671 817.901 41.4004C819.567 40.5337 820.867 39.3337 821.801 37.8004C822.801 36.2671 823.301 34.5337 823.301 32.6004C823.301 29.6004 822.201 27.1671 820.001 25.3004C817.867 23.4337 815.101 22.5004 811.701 22.5004H800.001V42.7004Z" fill="white"/>
<path d="M419.113 200V130H434.013L454.413 160.2L474.813 130H489.613V200H476.013V151.4L454.413 183.2L432.813 151.5V200H419.113Z" fill="white"/>
<path d="M553.355 200L526.555 130H540.255L567.855 200H553.355ZM498.055 200L525.655 130H539.355L512.555 200H498.055ZM511.055 184.6V172.5H554.955V184.6H511.055Z" fill="white"/>
<path d="M576.242 200V130H590.542L624.742 177V130H638.342V200H624.742L589.942 152.1V200H576.242Z" fill="white"/>
<path d="M702.086 200L675.286 130H688.986L716.586 200H702.086ZM646.786 200L674.386 130H688.086L661.286 200H646.786ZM659.786 184.6V172.5H703.686V184.6H659.786Z" fill="white"/>
<path d="M753.762 201.2C746.628 201.2 740.295 199.667 734.762 196.6C729.295 193.467 724.995 189.2 721.862 183.8C718.728 178.334 717.162 172.067 717.162 165C717.162 157.934 718.728 151.7 721.862 146.3C724.995 140.834 729.295 136.567 734.762 133.5C740.295 130.367 746.628 128.8 753.762 128.8C758.028 128.8 761.962 129.434 765.562 130.7C769.162 131.967 772.328 133.734 775.062 136C777.862 138.2 780.195 140.734 782.062 143.6L770.862 150.6C769.728 148.8 768.228 147.2 766.362 145.8C764.562 144.4 762.562 143.3 760.362 142.5C758.162 141.7 755.962 141.3 753.762 141.3C749.362 141.3 745.462 142.334 742.062 144.4C738.662 146.4 735.995 149.167 734.062 152.7C732.128 156.234 731.162 160.334 731.162 165C731.162 169.6 732.095 173.7 733.962 177.3C735.895 180.9 738.595 183.734 742.062 185.8C745.528 187.8 749.528 188.8 754.062 188.8C757.595 188.8 760.728 188.1 763.462 186.7C766.262 185.3 768.462 183.334 770.062 180.8C771.662 178.267 772.462 175.334 772.462 172L785.462 170C785.462 176.6 784.095 182.234 781.362 186.9C778.695 191.567 774.962 195.134 770.162 197.6C765.428 200 759.962 201.2 753.762 201.2ZM756.062 173.2V162.5H785.462V171L778.062 173.2H756.062Z" fill="white"/>
<path d="M795.578 200V130H839.878V142.5H809.278V158.4H835.678V170.6H809.278V187.5H840.278V200H795.578Z" fill="white"/>
<path d="M854.465 200V130H869.365L889.765 160.2L910.165 130H924.965V200H911.365V151.4L889.765 183.2L868.165 151.5V200H854.465Z" fill="white"/>
<path d="M940.207 200V130H984.507V142.5H953.907V158.4H980.307V170.6H953.907V187.5H984.907V200H940.207Z" fill="white"/>
<path d="M999.094 200V130H1013.39L1047.59 177V130H1061.19V200H1047.59L1012.79 152.1V200H999.094Z" fill="white"/>
<path d="M1091.24 200V142.5H1070.24V130H1125.84V142.5H1104.94V200H1091.24Z" fill="white"/>
</svg>
